<?xml version="1.0" encoding="UTF-8" standalone="no"?>
<!DOCTYPE svg PUBLIC "-//W3C//DTD SVG 1.1//EN"
 "http://www.w3.org/Graphics/SVG/1.1/DTD/svg11.dtd">
<!-- Generated by graphviz version 2.38.0 (20140413.2041)
 -->
<!-- Title: %3 Pages: 1 -->
<svg width="469pt" height="188pt"
 viewBox="0.00 0.00 469.09 188.00" xmlns="http://www.w3.org/2000/svg" xmlns:xlink="http://www.w3.org/1999/xlink">
<g id="graph0" class="graph" transform="scale(1 1) rotate(0) translate(4 184)">
<title>%3</title>
<polygon fill="white" stroke="none" points="-4,4 -4,-184 465.087,-184 465.087,4 -4,4"/>
<!-- main() -->
<g id="node1" class="node"><title>main()</title>
<ellipse fill="#eeeeee" stroke="black" cx="148.894" cy="-162" rx="39.7935" ry="18"/>
<text text-anchor="middle" x="148.894" y="-158.3" font-family="Sans-Serif" font-size="14.00">main()</text>
</g>
<!-- read_config() -->
<g id="node2" class="node"><title>read_config()</title>
<ellipse fill="#eeeeee" stroke="black" cx="68.8939" cy="-90" rx="68.7879" ry="18"/>
<text text-anchor="middle" x="68.8939" y="-86.3" font-family="Sans-Serif" font-size="14.00">read_config()</text>
</g>
<!-- main()&#45;&gt;read_config() -->
<g id="edge1" class="edge"><title>main()&#45;&gt;read_config()</title>
<path fill="none" stroke="black" d="M131.535,-145.811C120.905,-136.509 107.093,-124.424 95.1445,-113.969"/>
<polygon fill="black" stroke="black" points="97.4446,-111.331 87.614,-107.38 92.835,-116.599 97.4446,-111.331"/>
</g>
<!-- file -->
<g id="node3" class="node"><title>file</title>
<ellipse fill="#eeeeee" stroke="black" cx="249.894" cy="-90" rx="27" ry="18"/>
<text text-anchor="middle" x="249.894" y="-86.3" font-family="Sans-Serif" font-size="14.00">file</text>
</g>
<!-- main()&#45;&gt;file -->
<g id="edge2" class="edge"><title>main()&#45;&gt;file</title>
<path fill="none" stroke="black" d="M169.821,-146.496C185.369,-135.72 206.693,-120.942 223.425,-109.345"/>
<polygon fill="black" stroke="black" points="225.477,-112.181 231.702,-103.608 221.489,-106.428 225.477,-112.181"/>
</g>
<!-- config -->
<g id="node4" class="node"><title>config</title>
<ellipse fill="#eeeeee" stroke="black" cx="116.894" cy="-18" rx="37.0935" ry="18"/>
<text text-anchor="middle" x="116.894" y="-14.3" font-family="Sans-Serif" font-size="14.00">config</text>
</g>
<!-- main()&#45;&gt;config -->
<g id="edge3" class="edge"><title>main()&#45;&gt;config</title>
<path fill="none" stroke="black" d="M150.942,-143.913C152.565,-125.728 153.584,-96.2877 146.894,-72 144.213,-62.2683 139.36,-52.4241 134.327,-43.9048"/>
<polygon fill="black" stroke="black" points="137.173,-41.8548 128.89,-35.2484 131.245,-45.5781 137.173,-41.8548"/>
</g>
<!-- read_config()&#45;&gt;config -->
<g id="edge4" class="edge"><title>read_config()&#45;&gt;config</title>
<path fill="none" stroke="black" d="M80.5133,-72.055C86.3763,-63.5048 93.5968,-52.975 100.055,-43.5561"/>
<polygon fill="black" stroke="black" points="102.943,-45.5337 105.712,-35.307 97.1701,-41.5749 102.943,-45.5337"/>
</g>
<!-- b -->
<g id="node5" class="node"><title>b</title>
<ellipse fill="#eeeeee" stroke="black" cx="377.894" cy="-162" rx="27" ry="18"/>
<text text-anchor="middle" x="377.894" y="-158.3" font-family="Sans-Serif" font-size="14.00">b</text>
</g>
<!-- convert_movie() -->
<g id="node6" class="node"><title>convert_movie()</title>
<ellipse fill="#eeeeee" stroke="black" cx="377.894" cy="-90" rx="83.3857" ry="18"/>
<text text-anchor="middle" x="377.894" y="-86.3" font-family="Sans-Serif" font-size="14.00">convert_movie()</text>
</g>
<!-- b&#45;&gt;convert_movie() -->
<g id="edge5" class="edge"><title>b&#45;&gt;convert_movie()</title>
<path fill="none" stroke="black" d="M377.894,-143.697C377.894,-135.983 377.894,-126.712 377.894,-118.112"/>
<polygon fill="black" stroke="black" points="381.394,-118.104 377.894,-108.104 374.394,-118.104 381.394,-118.104"/>
</g>
<!-- read_file() -->
<g id="node7" class="node"><title>read_file()</title>
<ellipse fill="#eeeeee" stroke="black" cx="262.894" cy="-162" rx="55.7903" ry="18"/>
<text text-anchor="middle" x="262.894" y="-158.3" font-family="Sans-Serif" font-size="14.00">read_file()</text>
</g>
<!-- read_file()&#45;&gt;file -->
<g id="edge6" class="edge"><title>read_file()&#45;&gt;file</title>
<path fill="none" stroke="black" d="M259.68,-143.697C258.248,-135.983 256.526,-126.712 254.929,-118.112"/>
<polygon fill="black" stroke="black" points="258.338,-117.297 253.07,-108.104 251.455,-118.575 258.338,-117.297"/>
</g>
</g>
</svg>
