<?xml version="1.0" encoding="UTF-8" standalone="no"?>
<!DOCTYPE svg PUBLIC "-//W3C//DTD SVG 1.1//EN"
 "http://www.w3.org/Graphics/SVG/1.1/DTD/svg11.dtd">
<!-- Generated by graphviz version 2.38.0 (20140413.2041)
 -->
<!-- Title: %3 Pages: 1 -->
<svg width="618pt" height="692pt"
 viewBox="0.00 0.00 618.00 692.00" xmlns="http://www.w3.org/2000/svg" xmlns:xlink="http://www.w3.org/1999/xlink">
<g id="graph0" class="graph" transform="scale(1 1) rotate(0) translate(4 688)">
<title>%3</title>
<polygon fill="white" stroke="none" points="-4,4 -4,-688 614,-688 614,4 -4,4"/>
<!-- globals -->
<g id="node1" class="node"><title>globals</title>
<ellipse fill="#eeeeee" stroke="black" cx="252" cy="-18" rx="81.7856" ry="18"/>
<text text-anchor="middle" x="252" y="-14.3" font-family="Sans-Serif" font-size="14.00">Global variables</text>
</g>
<!-- a -->
<g id="node2" class="node"><title>a</title>
<ellipse fill="#eeeeee" stroke="black" cx="86" cy="-666" rx="27" ry="18"/>
<text text-anchor="middle" x="86" y="-662.3" font-family="Sans-Serif" font-size="14.00">a</text>
</g>
<!-- a&#45;&gt;globals -->
<g id="edge1" class="edge"><title>a&#45;&gt;globals</title>
<path fill="none" stroke="black" d="M66.3796,-653.245C52.2752,-643.805 33.8941,-629.294 23,-612 1.22422,-577.432 0,-563.855 0,-523 0,-523 0,-523 0,-161 0,-114.962 16.2661,-99.7511 53,-72 85.734,-47.2706 129.104,-34.0619 166.999,-27.0144"/>
<polygon fill="black" stroke="black" points="167.765,-30.4338 177.015,-25.2689 166.563,-23.5377 167.765,-30.4338"/>
</g>
<!-- b -->
<g id="node3" class="node"><title>b</title>
<ellipse fill="#eeeeee" stroke="black" cx="59" cy="-594" rx="27" ry="18"/>
<text text-anchor="middle" x="59" y="-590.3" font-family="Sans-Serif" font-size="14.00">b</text>
</g>
<!-- a&#45;&gt;b -->
<g id="edge10" class="edge"><title>a&#45;&gt;b</title>
<path fill="none" stroke="black" d="M79.6014,-648.411C76.4864,-640.335 72.6663,-630.431 69.1654,-621.355"/>
<polygon fill="black" stroke="black" points="72.4045,-620.027 65.5403,-611.956 65.8735,-622.546 72.4045,-620.027"/>
</g>
<!-- b&#45;&gt;globals -->
<g id="edge2" class="edge"><title>b&#45;&gt;globals</title>
<path fill="none" stroke="black" d="M54.8511,-576.07C48.731,-549.571 38,-496.605 38,-451 38,-451 38,-451 38,-161 38,-89.4729 122.031,-51.8293 184.78,-33.6906"/>
<polygon fill="black" stroke="black" points="185.956,-36.9966 194.652,-30.9447 184.08,-30.2526 185.956,-36.9966"/>
</g>
<!-- d -->
<g id="node5" class="node"><title>d</title>
<ellipse fill="#eeeeee" stroke="black" cx="283" cy="-522" rx="27" ry="18"/>
<text text-anchor="middle" x="283" y="-518.3" font-family="Sans-Serif" font-size="14.00">d</text>
</g>
<!-- b&#45;&gt;d -->
<g id="edge11" class="edge"><title>b&#45;&gt;d</title>
<path fill="none" stroke="black" d="M82.9719,-585.509C122.949,-573.016 203.348,-547.891 249.107,-533.592"/>
<polygon fill="black" stroke="black" points="250.361,-536.867 258.862,-530.543 248.273,-530.185 250.361,-536.867"/>
</g>
<!-- c -->
<g id="node4" class="node"><title>c</title>
<ellipse fill="#eeeeee" stroke="black" cx="373" cy="-234" rx="27" ry="18"/>
<text text-anchor="middle" x="373" y="-230.3" font-family="Sans-Serif" font-size="14.00">c</text>
</g>
<!-- c&#45;&gt;d -->
<g id="edge19" class="edge"><title>c&#45;&gt;d</title>
<path fill="none" stroke="black" d="M368.939,-251.906C359.464,-290.637 334.519,-388.573 306,-468 302.749,-477.054 298.706,-486.763 294.92,-495.365"/>
<polygon fill="black" stroke="black" points="291.716,-493.957 290.812,-504.513 298.102,-496.825 291.716,-493.957"/>
</g>
<!-- e -->
<g id="node6" class="node"><title>e</title>
<ellipse fill="#eeeeee" stroke="black" cx="442" cy="-378" rx="27" ry="18"/>
<text text-anchor="middle" x="442" y="-374.3" font-family="Sans-Serif" font-size="14.00">e</text>
</g>
<!-- c&#45;&gt;e -->
<g id="edge22" class="edge"><title>c&#45;&gt;e</title>
<path fill="none" stroke="black" d="M381.035,-251.537C393.002,-276.163 415.601,-322.671 429.669,-351.622"/>
<polygon fill="black" stroke="black" points="426.566,-353.246 434.085,-360.711 432.862,-350.187 426.566,-353.246"/>
</g>
<!-- f -->
<g id="node7" class="node"><title>f</title>
<ellipse fill="#eeeeee" stroke="black" cx="256" cy="-450" rx="27" ry="18"/>
<text text-anchor="middle" x="256" y="-446.3" font-family="Sans-Serif" font-size="14.00">f</text>
</g>
<!-- c&#45;&gt;f -->
<g id="edge17" class="edge"><title>c&#45;&gt;f</title>
<path fill="none" stroke="black" d="M364.104,-251.271C343.804,-288.401 293.952,-379.584 269.698,-423.946"/>
<polygon fill="black" stroke="black" points="266.52,-422.462 264.794,-432.915 272.662,-425.82 266.52,-422.462"/>
</g>
<!-- d&#45;&gt;globals -->
<g id="edge3" class="edge"><title>d&#45;&gt;globals</title>
<path fill="none" stroke="black" d="M309.686,-518.156C373.184,-509.764 528,-479.046 528,-379 528,-379 528,-379 528,-161 528,-73.9252 418.036,-40.1989 336.927,-27.1657"/>
<polygon fill="black" stroke="black" points="337.103,-23.6521 326.69,-25.6045 336.048,-30.5721 337.103,-23.6521"/>
</g>
<!-- d&#45;&gt;a -->
<g id="edge12" class="edge"><title>d&#45;&gt;a</title>
<path fill="none" stroke="black" d="M265.352,-535.721C230.559,-560.8 152.955,-616.738 112.179,-646.13"/>
<polygon fill="black" stroke="black" points="109.896,-643.461 103.83,-652.148 113.989,-649.14 109.896,-643.461"/>
</g>
<!-- d&#45;&gt;f -->
<g id="edge20" class="edge"><title>d&#45;&gt;f</title>
<path fill="none" stroke="black" d="M276.601,-504.411C273.486,-496.335 269.666,-486.431 266.165,-477.355"/>
<polygon fill="black" stroke="black" points="269.405,-476.027 262.54,-467.956 262.874,-478.546 269.405,-476.027"/>
</g>
<!-- e&#45;&gt;globals -->
<g id="edge4" class="edge"><title>e&#45;&gt;globals</title>
<path fill="none" stroke="black" d="M451.255,-360.984C465.203,-335.291 490,-282.883 490,-235 490,-235 490,-235 490,-161 490,-83.8412 396.609,-47.6289 326.83,-31.341"/>
<polygon fill="black" stroke="black" points="327.243,-27.847 316.72,-29.08 325.715,-34.6782 327.243,-27.847"/>
</g>
<!-- g -->
<g id="node8" class="node"><title>g</title>
<ellipse fill="#eeeeee" stroke="black" cx="283" cy="-306" rx="27" ry="18"/>
<text text-anchor="middle" x="283" y="-302.3" font-family="Sans-Serif" font-size="14.00">g</text>
</g>
<!-- e&#45;&gt;g -->
<g id="edge24" class="edge"><title>e&#45;&gt;g</title>
<path fill="none" stroke="black" d="M419.892,-367.267C392.481,-355.199 345.579,-334.551 314.434,-320.839"/>
<polygon fill="black" stroke="black" points="315.483,-317.477 304.921,-316.651 312.663,-323.883 315.483,-317.477"/>
</g>
<!-- i -->
<g id="node10" class="node"><title>i</title>
<ellipse fill="#eeeeee" stroke="black" cx="252" cy="-90" rx="27" ry="18"/>
<text text-anchor="middle" x="252" y="-86.3" font-family="Sans-Serif" font-size="14.00">i</text>
</g>
<!-- e&#45;&gt;i -->
<g id="edge25" class="edge"><title>e&#45;&gt;i</title>
<path fill="none" stroke="black" d="M442.204,-359.628C441.795,-328.512 437.349,-262.209 409,-216 377.808,-165.157 318.12,-126.413 282,-106.324"/>
<polygon fill="black" stroke="black" points="283.376,-103.089 272.918,-101.39 280.034,-109.239 283.376,-103.089"/>
</g>
<!-- f&#45;&gt;globals -->
<g id="edge5" class="edge"><title>f&#45;&gt;globals</title>
<path fill="none" stroke="black" d="M238.871,-435.792C201.104,-405.032 114,-324.399 114,-235 114,-235 114,-235 114,-161 114,-105.071 169.738,-62.8774 210.367,-39.5505"/>
<polygon fill="black" stroke="black" points="212.258,-42.5037 219.296,-34.5838 208.856,-36.3864 212.258,-42.5037"/>
</g>
<!-- f&#45;&gt;e -->
<g id="edge13" class="edge"><title>f&#45;&gt;e</title>
<path fill="none" stroke="black" d="M279.181,-440.276C312.078,-427.895 372.444,-405.177 409.71,-391.152"/>
<polygon fill="black" stroke="black" points="410.985,-394.412 419.111,-387.614 408.519,-387.861 410.985,-394.412"/>
</g>
<!-- g&#45;&gt;globals -->
<g id="edge6" class="edge"><title>g&#45;&gt;globals</title>
<path fill="none" stroke="black" d="M286.903,-288.121C295.189,-249.039 311.904,-149.734 288,-72 284.943,-62.0574 279.315,-52.3065 273.403,-43.9338"/>
<polygon fill="black" stroke="black" points="276.051,-41.6328 267.235,-35.7574 270.463,-45.8485 276.051,-41.6328"/>
</g>
<!-- g&#45;&gt;c -->
<g id="edge30" class="edge"><title>g&#45;&gt;c</title>
<path fill="none" stroke="black" d="M299.928,-291.834C313.505,-281.274 332.757,-266.3 348.092,-254.373"/>
<polygon fill="black" stroke="black" points="350.403,-257.01 356.148,-248.107 346.105,-251.484 350.403,-257.01"/>
</g>
<!-- g&#45;&gt;d -->
<g id="edge18" class="edge"><title>g&#45;&gt;d</title>
<path fill="none" stroke="black" d="M285.504,-323.943C289.495,-353.31 296.421,-415.555 292,-468 291.283,-476.501 289.931,-485.688 288.488,-493.988"/>
<polygon fill="black" stroke="black" points="285.031,-493.438 286.654,-503.908 291.914,-494.711 285.031,-493.438"/>
</g>
<!-- g&#45;&gt;i -->
<g id="edge31" class="edge"><title>g&#45;&gt;i</title>
<path fill="none" stroke="black" d="M280.516,-287.849C275.14,-250.74 262.393,-162.747 255.919,-118.054"/>
<polygon fill="black" stroke="black" points="259.351,-117.33 254.453,-107.935 252.423,-118.334 259.351,-117.33"/>
</g>
<!-- k -->
<g id="node12" class="node"><title>k</title>
<ellipse fill="#eeeeee" stroke="black" cx="210" cy="-234" rx="27" ry="18"/>
<text text-anchor="middle" x="210" y="-230.3" font-family="Sans-Serif" font-size="14.00">k</text>
</g>
<!-- g&#45;&gt;k -->
<g id="edge23" class="edge"><title>g&#45;&gt;k</title>
<path fill="none" stroke="black" d="M268.227,-290.834C257.838,-280.872 243.756,-267.369 232.043,-256.137"/>
<polygon fill="black" stroke="black" points="234.391,-253.539 224.751,-249.144 229.546,-258.592 234.391,-253.539"/>
</g>
<!-- h -->
<g id="node9" class="node"><title>h</title>
<ellipse fill="#eeeeee" stroke="black" cx="583" cy="-450" rx="27" ry="18"/>
<text text-anchor="middle" x="583" y="-446.3" font-family="Sans-Serif" font-size="14.00">h</text>
</g>
<!-- h&#45;&gt;globals -->
<g id="edge7" class="edge"><title>h&#45;&gt;globals</title>
<path fill="none" stroke="black" d="M581.419,-431.968C579.088,-405.332 575,-352.186 575,-307 575,-307 575,-307 575,-161 575,-118.813 574.314,-99.121 542,-72 511.765,-46.6244 412.686,-32.5868 338.698,-25.4366"/>
<polygon fill="black" stroke="black" points="338.718,-21.9231 328.435,-24.4729 338.064,-28.8925 338.718,-21.9231"/>
</g>
<!-- h&#45;&gt;e -->
<g id="edge26" class="edge"><title>h&#45;&gt;e</title>
<path fill="none" stroke="black" d="M561.891,-438.52C538.113,-426.716 499.271,-407.433 472.267,-394.026"/>
<polygon fill="black" stroke="black" points="473.767,-390.863 463.253,-389.551 470.654,-397.133 473.767,-390.863"/>
</g>
<!-- i&#45;&gt;globals -->
<g id="edge8" class="edge"><title>i&#45;&gt;globals</title>
<path fill="none" stroke="black" d="M252,-71.6966C252,-63.9827 252,-54.7125 252,-46.1124"/>
<polygon fill="black" stroke="black" points="255.5,-46.1043 252,-36.1043 248.5,-46.1044 255.5,-46.1043"/>
</g>
<!-- j -->
<g id="node11" class="node"><title>j</title>
<ellipse fill="#eeeeee" stroke="black" cx="182" cy="-162" rx="27" ry="18"/>
<text text-anchor="middle" x="182" y="-158.3" font-family="Sans-Serif" font-size="14.00">j</text>
</g>
<!-- j&#45;&gt;globals -->
<g id="edge9" class="edge"><title>j&#45;&gt;globals</title>
<path fill="none" stroke="black" d="M187.157,-144.097C193.029,-125.812 203.455,-96.0511 216,-72 220.887,-62.6308 227.105,-52.9167 232.992,-44.4038"/>
<polygon fill="black" stroke="black" points="236.001,-46.2117 238.939,-36.0322 230.294,-42.1581 236.001,-46.2117"/>
</g>
<!-- j&#45;&gt;f -->
<g id="edge16" class="edge"><title>j&#45;&gt;f</title>
<path fill="none" stroke="black" d="M177.695,-179.874C173.747,-197.881 169.188,-227.175 174,-252 186.618,-317.102 221.682,-387.48 241.633,-423.925"/>
<polygon fill="black" stroke="black" points="238.678,-425.812 246.593,-432.855 244.797,-422.413 238.678,-425.812"/>
</g>
<!-- j&#45;&gt;i -->
<g id="edge15" class="edge"><title>j&#45;&gt;i</title>
<path fill="none" stroke="black" d="M196.504,-146.496C206.265,-136.735 219.31,-123.69 230.3,-112.7"/>
<polygon fill="black" stroke="black" points="232.918,-115.031 237.515,-105.485 227.969,-110.082 232.918,-115.031"/>
</g>
<!-- k&#45;&gt;a -->
<g id="edge14" class="edge"><title>k&#45;&gt;a</title>
<path fill="none" stroke="black" d="M197.646,-250.305C171.718,-284.027 114,-368.171 114,-449 114,-523 114,-523 114,-523 114,-563.774 102.75,-609.911 94.512,-638.23"/>
<polygon fill="black" stroke="black" points="91.0533,-637.579 91.5319,-648.163 97.7581,-639.59 91.0533,-637.579"/>
</g>
<!-- k&#45;&gt;b -->
<g id="edge27" class="edge"><title>k&#45;&gt;b</title>
<path fill="none" stroke="black" d="M188.767,-245.138C150.983,-264.831 76,-312.088 76,-377 76,-451 76,-451 76,-451 76,-491.29 69.1697,-537.556 64.168,-566.035"/>
<polygon fill="black" stroke="black" points="60.6961,-565.566 62.3587,-576.029 67.5842,-566.813 60.6961,-565.566"/>
</g>
<!-- k&#45;&gt;f -->
<g id="edge28" class="edge"><title>k&#45;&gt;f</title>
<path fill="none" stroke="black" d="M213.64,-251.935C221.591,-288.925 240.566,-377.197 250.19,-421.969"/>
<polygon fill="black" stroke="black" points="246.79,-422.808 252.313,-431.849 253.634,-421.337 246.79,-422.808"/>
</g>
<!-- k&#45;&gt;i -->
<g id="edge21" class="edge"><title>k&#45;&gt;i</title>
<path fill="none" stroke="black" d="M214.983,-216.153C222.182,-191.813 235.564,-146.568 244.113,-117.665"/>
<polygon fill="black" stroke="black" points="247.544,-118.407 247.024,-107.825 240.831,-116.422 247.544,-118.407"/>
</g>
<!-- k&#45;&gt;j -->
<g id="edge32" class="edge"><title>k&#45;&gt;j</title>
<path fill="none" stroke="black" d="M203.364,-216.411C200.087,-208.216 196.056,-198.14 192.382,-188.955"/>
<polygon fill="black" stroke="black" points="195.552,-187.455 188.588,-179.47 189.052,-190.055 195.552,-187.455"/>
</g>
<!-- l -->
<g id="node13" class="node"><title>l</title>
<ellipse fill="#eeeeee" stroke="black" cx="583" cy="-522" rx="27" ry="18"/>
<text text-anchor="middle" x="583" y="-518.3" font-family="Sans-Serif" font-size="14.00">l</text>
</g>
<!-- l&#45;&gt;h -->
<g id="edge29" class="edge"><title>l&#45;&gt;h</title>
<path fill="none" stroke="black" d="M583,-503.697C583,-495.983 583,-486.712 583,-478.112"/>
<polygon fill="black" stroke="black" points="586.5,-478.104 583,-468.104 579.5,-478.104 586.5,-478.104"/>
</g>
</g>
</svg>
