<?xml version="1.0" encoding="UTF-8" standalone="no"?>
<!DOCTYPE svg PUBLIC "-//W3C//DTD SVG 1.1//EN"
 "http://www.w3.org/Graphics/SVG/1.1/DTD/svg11.dtd">
<!-- Generated by graphviz version 2.38.0 (20140413.2041)
 -->
<!-- Title: %3 Pages: 1 -->
<svg width="395pt" height="211pt"
 viewBox="0.00 0.00 395.19 211.00" xmlns="http://www.w3.org/2000/svg" xmlns:xlink="http://www.w3.org/1999/xlink">
<g id="graph0" class="graph" transform="scale(1 1) rotate(0) translate(4 207)">
<title>%3</title>
<polygon fill="white" stroke="none" points="-4,4 -4,-207 391.188,-207 391.188,4 -4,4"/>
<text text-anchor="middle" x="193.594" y="-7.8" font-family="Sans-Serif" font-size="14.00">Spaghetti Code</text>
<!-- main() -->
<g id="node1" class="node"><title>main()</title>
<ellipse fill="#eeeeee" stroke="black" cx="182.894" cy="-185" rx="39.7935" ry="18"/>
<text text-anchor="middle" x="182.894" y="-181.3" font-family="Sans-Serif" font-size="14.00">main()</text>
</g>
<!-- read_config() -->
<g id="node2" class="node"><title>read_config()</title>
<ellipse fill="#eeeeee" stroke="black" cx="68.8939" cy="-113" rx="68.7879" ry="18"/>
<text text-anchor="middle" x="68.8939" y="-109.3" font-family="Sans-Serif" font-size="14.00">read_config()</text>
</g>
<!-- main()&#45;&gt;read_config() -->
<g id="edge1" class="edge"><title>main()&#45;&gt;read_config()</title>
<path fill="none" stroke="black" d="M160.371,-170.17C144.088,-160.172 121.792,-146.482 103.289,-135.12"/>
<polygon fill="black" stroke="black" points="104.906,-132.006 94.5532,-129.756 101.243,-137.971 104.906,-132.006"/>
</g>
<!-- file -->
<g id="node3" class="node"><title>file</title>
<ellipse fill="#eeeeee" stroke="black" cx="182.894" cy="-113" rx="27" ry="18"/>
<text text-anchor="middle" x="182.894" y="-109.3" font-family="Sans-Serif" font-size="14.00">file</text>
</g>
<!-- main()&#45;&gt;file -->
<g id="edge2" class="edge"><title>main()&#45;&gt;file</title>
<path fill="none" stroke="black" d="M182.894,-166.697C182.894,-158.983 182.894,-149.712 182.894,-141.112"/>
<polygon fill="black" stroke="black" points="186.394,-141.104 182.894,-131.104 179.394,-141.104 186.394,-141.104"/>
</g>
<!-- config -->
<g id="node4" class="node"><title>config</title>
<ellipse fill="#eeeeee" stroke="black" cx="237.894" cy="-41" rx="37.0935" ry="18"/>
<text text-anchor="middle" x="237.894" y="-37.3" font-family="Sans-Serif" font-size="14.00">config</text>
</g>
<!-- main()&#45;&gt;config -->
<g id="edge3" class="edge"><title>main()&#45;&gt;config</title>
<path fill="none" stroke="black" d="M196.346,-167.786C204.022,-157.759 213.216,-144.299 218.894,-131 227.359,-111.172 232.198,-87.1959 234.871,-69.1267"/>
<polygon fill="black" stroke="black" points="238.371,-69.3663 236.238,-58.9884 231.433,-68.4313 238.371,-69.3663"/>
</g>
<!-- read_config()&#45;&gt;config -->
<g id="edge4" class="edge"><title>read_config()&#45;&gt;config</title>
<path fill="none" stroke="black" d="M103.911,-97.496C132.402,-85.695 172.481,-69.0942 201.37,-57.1281"/>
<polygon fill="black" stroke="black" points="202.806,-60.3217 210.706,-53.2613 200.128,-53.8545 202.806,-60.3217"/>
</g>
<!-- open_db() -->
<g id="node5" class="node"><title>open_db()</title>
<ellipse fill="#eeeeee" stroke="black" cx="320.894" cy="-113" rx="55.4913" ry="18"/>
<text text-anchor="middle" x="320.894" y="-109.3" font-family="Sans-Serif" font-size="14.00">open_db()</text>
</g>
<!-- open_db()&#45;&gt;config -->
<g id="edge5" class="edge"><title>open_db()&#45;&gt;config</title>
<path fill="none" stroke="black" d="M301.643,-95.7646C290.251,-86.1567 275.683,-73.8703 263.349,-63.4685"/>
<polygon fill="black" stroke="black" points="265.524,-60.7239 255.623,-56.9523 261.011,-66.0749 265.524,-60.7239"/>
</g>
<!-- get_people() -->
<g id="node6" class="node"><title>get_people()</title>
<ellipse fill="#eeeeee" stroke="black" cx="320.894" cy="-185" rx="66.0889" ry="18"/>
<text text-anchor="middle" x="320.894" y="-181.3" font-family="Sans-Serif" font-size="14.00">get_people()</text>
</g>
<!-- get_people()&#45;&gt;open_db() -->
<g id="edge6" class="edge"><title>get_people()&#45;&gt;open_db()</title>
<path fill="none" stroke="black" d="M320.894,-166.697C320.894,-158.983 320.894,-149.712 320.894,-141.112"/>
<polygon fill="black" stroke="black" points="324.394,-141.104 320.894,-131.104 317.394,-141.104 324.394,-141.104"/>
</g>
</g>
</svg>
