<?xml version="1.0" encoding="UTF-8" standalone="no"?>
<!DOCTYPE svg PUBLIC "-//W3C//DTD SVG 1.1//EN"
 "http://www.w3.org/Graphics/SVG/1.1/DTD/svg11.dtd">
<!-- Generated by graphviz version 2.38.0 (20140413.2041)
 -->
<!-- Title: %3 Pages: 1 -->
<svg width="526pt" height="332pt"
 viewBox="0.00 0.00 525.89 332.00" xmlns="http://www.w3.org/2000/svg" xmlns:xlink="http://www.w3.org/1999/xlink">
<g id="graph0" class="graph" transform="scale(1 1) rotate(0) translate(4 328)">
<title>%3</title>
<polygon fill="white" stroke="none" points="-4,4 -4,-328 521.89,-328 521.89,4 -4,4"/>
<!-- main -->
<g id="node1" class="node"><title>main</title>
<ellipse fill="#eeeeee" stroke="black" cx="172.945" cy="-306" rx="72.5877" ry="18"/>
<text text-anchor="middle" x="172.945" y="-302.3" font-family="Sans-Serif" font-size="14.00">Main program</text>
</g>
<!-- mainf -->
<g id="node2" class="node"><title>mainf</title>
<ellipse fill="#eeeeee" stroke="black" cx="53.9452" cy="-234" rx="53.8905" ry="18"/>
<text text-anchor="middle" x="53.9452" y="-230.3" font-family="Sans-Serif" font-size="14.00">Functions</text>
</g>
<!-- main&#45;&gt;mainf -->
<g id="edge11" class="edge"><title>main&#45;&gt;mainf</title>
<path fill="none" stroke="black" d="M145.942,-289.116C128.852,-279.063 106.603,-265.975 88.2655,-255.188"/>
<polygon fill="black" stroke="black" points="90.0116,-252.155 79.6176,-250.101 86.4624,-258.188 90.0116,-252.155"/>
</g>
<!-- p1 -->
<g id="node11" class="node"><title>p1</title>
<ellipse fill="#eeeeee" stroke="black" cx="172.945" cy="-234" rx="47.3916" ry="18"/>
<text text-anchor="middle" x="172.945" y="-230.3" font-family="Sans-Serif" font-size="14.00">Package</text>
</g>
<!-- main&#45;&gt;p1 -->
<g id="edge12" class="edge"><title>main&#45;&gt;p1</title>
<path fill="none" stroke="black" d="M172.945,-287.697C172.945,-279.983 172.945,-270.712 172.945,-262.112"/>
<polygon fill="black" stroke="black" points="176.445,-262.104 172.945,-252.104 169.445,-262.104 176.445,-262.104"/>
</g>
<!-- p2 -->
<g id="node12" class="node"><title>p2</title>
<ellipse fill="#eeeeee" stroke="black" cx="285.945" cy="-234" rx="47.3916" ry="18"/>
<text text-anchor="middle" x="285.945" y="-230.3" font-family="Sans-Serif" font-size="14.00">Package</text>
</g>
<!-- main&#45;&gt;p2 -->
<g id="edge13" class="edge"><title>main&#45;&gt;p2</title>
<path fill="none" stroke="black" d="M198.587,-289.116C214.889,-279.017 236.136,-265.855 253.594,-255.04"/>
<polygon fill="black" stroke="black" points="255.674,-257.869 262.332,-249.628 251.988,-251.918 255.674,-257.869"/>
</g>
<!-- f1 -->
<g id="node3" class="node"><title>f1</title>
<ellipse fill="#eeeeee" stroke="black" cx="102.945" cy="-90" rx="53.8905" ry="18"/>
<text text-anchor="middle" x="102.945" y="-86.3" font-family="Sans-Serif" font-size="14.00">Functions</text>
</g>
<!-- f2 -->
<g id="node4" class="node"><title>f2</title>
<ellipse fill="#eeeeee" stroke="black" cx="228.945" cy="-90" rx="53.8905" ry="18"/>
<text text-anchor="middle" x="228.945" y="-86.3" font-family="Sans-Serif" font-size="14.00">Functions</text>
</g>
<!-- f3 -->
<g id="node5" class="node"><title>f3</title>
<ellipse fill="#eeeeee" stroke="black" cx="337.945" cy="-18" rx="53.8905" ry="18"/>
<text text-anchor="middle" x="337.945" y="-14.3" font-family="Sans-Serif" font-size="14.00">Functions</text>
</g>
<!-- f4 -->
<g id="node6" class="node"><title>f4</title>
<ellipse fill="#eeeeee" stroke="black" cx="463.945" cy="-18" rx="53.8905" ry="18"/>
<text text-anchor="middle" x="463.945" y="-14.3" font-family="Sans-Serif" font-size="14.00">Functions</text>
</g>
<!-- m1 -->
<g id="node7" class="node"><title>m1</title>
<ellipse fill="#eeeeee" stroke="black" cx="113.945" cy="-162" rx="42.7926" ry="18"/>
<text text-anchor="middle" x="113.945" y="-158.3" font-family="Sans-Serif" font-size="14.00">Module</text>
</g>
<!-- m1&#45;&gt;f1 -->
<g id="edge7" class="edge"><title>m1&#45;&gt;f1</title>
<path fill="none" stroke="black" d="M111.226,-143.697C110.014,-135.983 108.557,-126.712 107.206,-118.112"/>
<polygon fill="black" stroke="black" points="110.643,-117.44 105.633,-108.104 103.728,-118.526 110.643,-117.44"/>
</g>
<!-- m2 -->
<g id="node8" class="node"><title>m2</title>
<ellipse fill="#eeeeee" stroke="black" cx="228.945" cy="-162" rx="42.7926" ry="18"/>
<text text-anchor="middle" x="228.945" y="-158.3" font-family="Sans-Serif" font-size="14.00">Module</text>
</g>
<!-- m2&#45;&gt;f2 -->
<g id="edge8" class="edge"><title>m2&#45;&gt;f2</title>
<path fill="none" stroke="black" d="M228.945,-143.697C228.945,-135.983 228.945,-126.712 228.945,-118.112"/>
<polygon fill="black" stroke="black" points="232.445,-118.104 228.945,-108.104 225.445,-118.104 232.445,-118.104"/>
</g>
<!-- m3 -->
<g id="node9" class="node"><title>m3</title>
<ellipse fill="#eeeeee" stroke="black" cx="343.945" cy="-90" rx="42.7926" ry="18"/>
<text text-anchor="middle" x="343.945" y="-86.3" font-family="Sans-Serif" font-size="14.00">Module</text>
</g>
<!-- m3&#45;&gt;f3 -->
<g id="edge9" class="edge"><title>m3&#45;&gt;f3</title>
<path fill="none" stroke="black" d="M342.462,-71.6966C341.801,-63.9827 341.006,-54.7125 340.269,-46.1124"/>
<polygon fill="black" stroke="black" points="343.753,-45.7689 339.411,-36.1043 336.778,-46.3667 343.753,-45.7689"/>
</g>
<!-- m4 -->
<g id="node10" class="node"><title>m4</title>
<ellipse fill="#eeeeee" stroke="black" cx="458.945" cy="-90" rx="42.7926" ry="18"/>
<text text-anchor="middle" x="458.945" y="-86.3" font-family="Sans-Serif" font-size="14.00">Module</text>
</g>
<!-- m4&#45;&gt;f4 -->
<g id="edge10" class="edge"><title>m4&#45;&gt;f4</title>
<path fill="none" stroke="black" d="M460.181,-71.6966C460.732,-63.9827 461.394,-54.7125 462.009,-46.1124"/>
<polygon fill="black" stroke="black" points="465.502,-46.3283 462.723,-36.1043 458.52,-45.8295 465.502,-46.3283"/>
</g>
<!-- p1&#45;&gt;m1 -->
<g id="edge1" class="edge"><title>p1&#45;&gt;m1</title>
<path fill="none" stroke="black" d="M159.261,-216.765C151.815,-207.93 142.459,-196.83 134.185,-187.014"/>
<polygon fill="black" stroke="black" points="136.676,-184.538 127.555,-179.147 131.324,-189.049 136.676,-184.538"/>
</g>
<!-- p1&#45;&gt;m2 -->
<g id="edge2" class="edge"><title>p1&#45;&gt;m2</title>
<path fill="none" stroke="black" d="M186.216,-216.411C193.121,-207.781 201.695,-197.062 209.347,-187.497"/>
<polygon fill="black" stroke="black" points="212.255,-189.465 215.769,-179.47 206.789,-185.092 212.255,-189.465"/>
</g>
<!-- p2&#45;&gt;m2 -->
<g id="edge3" class="edge"><title>p2&#45;&gt;m2</title>
<path fill="none" stroke="black" d="M272.437,-216.411C265.409,-207.781 256.682,-197.062 248.893,-187.497"/>
<polygon fill="black" stroke="black" points="251.385,-185.014 242.356,-179.47 245.957,-189.434 251.385,-185.014"/>
</g>
<!-- p3 -->
<g id="node13" class="node"><title>p3</title>
<ellipse fill="#eeeeee" stroke="black" cx="343.945" cy="-162" rx="47.3916" ry="18"/>
<text text-anchor="middle" x="343.945" y="-158.3" font-family="Sans-Serif" font-size="14.00">Package</text>
</g>
<!-- p2&#45;&gt;p3 -->
<g id="edge4" class="edge"><title>p2&#45;&gt;p3</title>
<path fill="none" stroke="black" d="M299.69,-216.411C306.914,-207.693 315.902,-196.845 323.887,-187.208"/>
<polygon fill="black" stroke="black" points="326.614,-189.403 330.299,-179.47 321.223,-184.937 326.614,-189.403"/>
</g>
<!-- p3&#45;&gt;m3 -->
<g id="edge5" class="edge"><title>p3&#45;&gt;m3</title>
<path fill="none" stroke="black" d="M343.945,-143.697C343.945,-135.983 343.945,-126.712 343.945,-118.112"/>
<polygon fill="black" stroke="black" points="347.445,-118.104 343.945,-108.104 340.445,-118.104 347.445,-118.104"/>
</g>
<!-- p3&#45;&gt;m4 -->
<g id="edge6" class="edge"><title>p3&#45;&gt;m4</title>
<path fill="none" stroke="black" d="M368.053,-146.326C385.146,-135.921 408.265,-121.849 426.908,-110.501"/>
<polygon fill="black" stroke="black" points="428.933,-113.366 435.655,-105.177 425.293,-107.387 428.933,-113.366"/>
</g>
</g>
</svg>
